New Amsterdam - Regular.ufo 
<glyph name="numbersign" format="2">
  <advance width="475"/>
  <unicode hex="0023"/>
  <outline>
    <contour>
      <point x="451" y="398" type="line"/>
      <point x="377" y="398" type="line"/>
      <point x="351" y="254" type="line"/>
      <point x="456" y="254" type="line"/>
      <point x="456" y="192" type="line"/>
      <point x="340" y="192" type="line"/>
      <point x="317" y="61" type="line"/>
      <point x="239" y="61" type="line"/>
      <point x="263" y="192" type="line"/>
      <point x="171" y="192" type="line"/>
      <point x="147" y="59" type="line"/>
      <point x="69" y="59" type="line"/>
      <point x="94" y="192" type="line"/>
      <point x="23" y="192" type="line"/>
      <point x="23" y="254" type="line"/>
      <point x="105" y="254" type="line"/>
      <point x="132" y="398" type="line"/>
      <point x="23" y="398" type="line"/>
      <point x="23" y="460" type="line"/>
      <point x="143" y="460" type="line"/>
      <point x="165" y="577" type="line"/>
      <point x="239" y="576" type="line"/>
      <point x="218" y="460" type="line"/>
      <point x="313" y="460" type="line"/>
      <point x="335" y="579" type="line"/>
      <point x="409" y="578" type="line"/>
      <point x="388" y="460" type="line"/>
      <point x="451" y="460" type="line"/>
    </contour>
    <contour>
      <point x="275" y="254" type="line"/>
      <point x="301" y="398" type="line"/>
      <point x="207" y="398" type="line"/>
      <point x="182" y="254" type="line"/>
    </contour>
  </outline>
</glyph>
<glyph name="dollar" format="2">
  <advance width="402"/>
  <unicode hex="0024"/>
  <outline>
    <contour>
      <point x="198" y="393" type="qcurve" smooth="yes"/>
      <point x="264" y="393"/>
      <point x="335" y="362"/>
      <point x="368" y="308"/>
      <point x="373" y="232"/>
      <point x="373" y="187" type="qcurve" smooth="yes"/>
      <point x="373" y="165" type="line" smooth="yes"/>
      <point x="373" y="90"/>
      <point x="319" y="13"/>
      <point x="251" y="3" type="qcurve"/>
      <point x="251" y="-57" type="line"/>
      <point x="138" y="-57" type="line"/>
      <point x="138" y="4" type="line"/>
      <point x="98" y="10"/>
      <point x="52" y="43"/>
      <point x="29" y="93"/>
      <point x="23" y="160"/>
      <point x="23" y="202" type="qcurve"/>
      <point x="134" y="202" type="line"/>
      <point x="134" y="193"/>
      <point x="133" y="173"/>
      <point x="133" y="165" type="qcurve"/>
      <point x="132" y="147"/>
      <point x="134" y="123"/>
      <point x="148" y="109"/>
      <point x="179" y="105"/>
      <point x="207" y="106" type="qcurve" smooth="yes"/>
      <point x="227" y="107"/>
      <point x="249" y="111"/>
      <point x="259" y="120"/>
      <point x="261" y="138"/>
      <point x="261" y="154" type="qcurve"/>
      <point x="262" y="183"/>
      <point x="263" y="221"/>
      <point x="262" y="232" type="qcurve"/>
      <point x="262" y="243"/>
      <point x="260" y="263"/>
      <point x="258" y="273" type="qcurve"/>
      <point x="256" y="277"/>
      <point x="243" y="283"/>
      <point x="227" y="286"/>
      <point x="209" y="287"/>
      <point x="202" y="287" type="qcurve" smooth="yes"/>
      <point x="198" y="287" type="line" smooth="yes"/>
      <point x="136" y="287"/>
      <point x="66" y="313"/>
      <point x="32" y="363"/>
      <point x="23" y="437"/>
      <point x="23" y="484" type="qcurve" smooth="yes"/>
      <point x="23" y="557"/>
      <point x="74" y="633"/>
      <point x="138" y="644" type="qcurve"/>
      <point x="138" y="705" type="line"/>
      <point x="251" y="705" type="line"/>
      <point x="251" y="645" type="line"/>
      <point x="319" y="635"/>
      <point x="373" y="556"/>
      <point x="373" y="479" type="qcurve"/>
      <point x="261" y="479" type="line"/>
      <point x="261" y="501"/>
      <point x="259" y="527"/>
      <point x="248" y="540"/>
      <point x="222" y="543"/>
      <point x="198" y="543" type="qcurve" smooth="yes"/>
      <point x="163" y="543"/>
      <point x="138" y="535"/>
      <point x="135" y="517" type="qcurve" smooth="yes"/>
      <point x="134" y="511"/>
      <point x="134" y="492"/>
      <point x="133" y="478" type="qcurve"/>
      <point x="133" y="451"/>
      <point x="134" y="417"/>
      <point x="139" y="403" type="qcurve" smooth="yes"/>
      <point x="140" y="400"/>
      <point x="156" y="396"/>
      <point x="176" y="394"/>
      <point x="194" y="393"/>
    </contour>
  </outline>
</glyph>
<glyph name="seven" format="2">
  <advance width="360"/>
  <unicode hex="0037"/>
  <outline>
    <contour>
      <point x="342" y="649" type="line"/>
      <point x="348" y="631"/>
      <point x="339" y="558"/>
      <point x="317" y="462"/>
      <point x="285" y="350"/>
      <point x="250" y="238"/>
      <point x="214" y="131"/>
      <point x="200" y="89" type="qcurve"/>
      <point x="200" y="90" type="line"/>
      <point x="194" y="68"/>
      <point x="178" y="22"/>
      <point x="171" y="0" type="qcurve"/>
      <point x="53" y="0" type="line"/>
      <point x="224" y="547" type="line"/>
      <point x="18" y="547" type="line"/>
      <point x="18" y="653" type="line"/>
      <point x="337" y="653" type="line"/>
    </contour>
  </outline>
</glyph>
<glyph name="bracketright" format="2">
  <advance width="188"/>
  <unicode hex="005D"/>
  <outline>
    <contour>
      <point x="152" y="779" type="line"/>
      <point x="153" y="-141" type="line"/>
      <point x="-79" y="-141" type="line"/>
      <point x="-79" y="-40" type="line"/>
      <point x="42" y="-40" type="line"/>
      <point x="41" y="686" type="line"/>
      <point x="-80" y="686" type="line"/>
      <point x="-80" y="779" type="line"/>
    </contour>
  </outline>
</glyph>
<glyph name="asciicircum" format="2">
  <advance width="423"/>
  <unicode hex="005E"/>
  <outline>
    <contour>
      <point x="16" y="373" type="line"/>
      <point x="162" y="636" type="line"/>
      <point x="254" y="636" type="line"/>
      <point x="402" y="376" type="line"/>
      <point x="304" y="377" type="line"/>
      <point x="208" y="557" type="line"/>
      <point x="112" y="374" type="line"/>
    </contour>
  </outline>
</glyph>
<glyph name="braceright" format="2">
  <advance width="259"/>
  <unicode hex="007D"/>
  <outline>
    <contour>
      <point x="105" y="317" type="qcurve"/>
      <point x="94" y="331"/>
      <point x="57" y="397"/>
      <point x="51" y="448" type="qcurve"/>
      <point x="51" y="618" type="line" smooth="yes"/>
      <point x="51" y="645"/>
      <point x="44" y="675"/>
      <point x="22" y="690"/>
      <point x="-18" y="693"/>
      <point x="-51" y="693" type="qcurve"/>
      <point x="-51" y="799" type="line"/>
      <point x="4" y="799"/>
      <point x="85" y="786"/>
      <point x="138" y="748"/>
      <point x="163" y="681"/>
      <point x="163" y="627" type="qcurve" smooth="yes"/>
      <point x="163" y="482" type="line"/>
      <point x="164" y="453"/>
      <point x="173" y="428" type="qcurve" smooth="yes"/>
      <point x="180" y="407"/>
      <point x="210" y="366"/>
      <point x="237" y="358" type="qcurve"/>
      <point x="237" y="325" type="line"/>
      <point x="237" y="307" type="line"/>
      <point x="237" y="276" type="line"/>
      <point x="210" y="268"/>
      <point x="180" y="228"/>
      <point x="173" y="207" type="qcurve" smooth="yes"/>
      <point x="164" y="182"/>
      <point x="163" y="154" type="qcurve"/>
      <point x="163" y="27" type="line" smooth="yes"/>
      <point x="163" y="-27"/>
      <point x="138" y="-94"/>
      <point x="85" y="-132"/>
      <point x="4" y="-145"/>
      <point x="-51" y="-145" type="qcurve"/>
      <point x="-51" y="-39" type="line"/>
      <point x="-18" y="-39"/>
      <point x="22" y="-36"/>
      <point x="44" y="-21"/>
      <point x="51" y="9"/>
      <point x="51" y="36" type="qcurve" smooth="yes"/>
      <point x="51" y="174" type="line"/>
      <point x="52" y="202"/>
      <point x="65" y="248"/>
      <point x="82" y="284"/>
      <point x="99" y="309"/>
    </contour>
  </outline>
</glyph>
<glyph name="exclamdown" format="2">
  <advance width="167"/>
  <unicode hex="00A1"/>
  <outline>
    <contour>
      <point x="84" y="545" type="qcurve" smooth="yes"/>
      <point x="53" y="545"/>
      <point x="27" y="569"/>
      <point x="27" y="598" type="qcurve" smooth="yes"/>
      <point x="27" y="627"/>
      <point x="53" y="651"/>
      <point x="84" y="651" type="qcurve" smooth="yes"/>
      <point x="114" y="651"/>
      <point x="140" y="627"/>
      <point x="140" y="598" type="qcurve" smooth="yes"/>
      <point x="140" y="569"/>
      <point x="114" y="545"/>
    </contour>
    <contour>
      <point x="27" y="491" type="line"/>
      <point x="140" y="491" type="line"/>
      <point x="140" y="0" type="line"/>
      <point x="27" y="0" type="line"/>
    </contour>
  </outline>
</glyph>
<glyph name="copyright" format="2">
  <advance width="396"/>
  <unicode hex="00A9"/>
  <outline>
    <contour>
      <point x="258" y="402" type="line"/>
      <point x="258" y="385"/>
      <point x="255" y="358"/>
      <point x="243" y="340"/>
      <point x="218" y="330"/>
      <point x="196" y="330" type="qcurve" smooth="yes"/>
      <point x="160" y="330"/>
      <point x="133" y="356"/>
      <point x="133" y="388" type="qcurve" smooth="yes"/>
      <point x="133" y="502" type="line" smooth="yes"/>
      <point x="133" y="534"/>
      <point x="160" y="560"/>
      <point x="196" y="560" type="qcurve" smooth="yes"/>
      <point x="231" y="560"/>
      <point x="258" y="532"/>
      <point x="258" y="500" type="qcurve"/>
      <point x="218" y="500" type="line"/>
      <point x="218" y="517"/>
      <point x="213" y="523"/>
      <point x="196" y="523" type="qcurve" smooth="yes"/>
      <point x="179" y="523"/>
      <point x="174" y="517"/>
      <point x="174" y="502" type="qcurve" smooth="yes"/>
      <point x="174" y="433" type="line"/>
      <point x="174" y="381" type="line"/>
      <point x="175" y="375"/>
      <point x="190" y="369"/>
      <point x="198" y="369" type="qcurve" smooth="yes"/>
      <point x="204" y="369"/>
      <point x="212" y="371"/>
      <point x="215" y="372" type="qcurve" smooth="yes"/>
      <point x="220" y="374"/>
      <point x="220" y="387" type="qcurve" smooth="yes"/>
      <point x="220" y="390"/>
      <point x="218" y="394"/>
      <point x="218" y="397" type="qcurve" smooth="yes"/>
      <point x="218" y="402" type="line"/>
    </contour>
    <contour>
      <point x="198" y="264" type="qcurve" smooth="yes"/>
      <point x="160" y="264"/>
      <point x="94" y="292"/>
      <point x="45" y="342"/>
      <point x="16" y="408"/>
      <point x="16" y="446" type="qcurve" smooth="yes"/>
      <point x="16" y="483"/>
      <point x="45" y="549"/>
      <point x="94" y="599"/>
      <point x="160" y="628"/>
      <point x="198" y="628" type="qcurve" smooth="yes"/>
      <point x="236" y="628"/>
      <point x="302" y="599"/>
      <point x="352" y="549"/>
      <point x="380" y="483"/>
      <point x="380" y="446" type="qcurve" smooth="yes"/>
      <point x="380" y="408"/>
      <point x="352" y="342"/>
      <point x="302" y="292"/>
      <point x="236" y="264"/>
    </contour>
    <contour>
      <point x="198" y="592" type="qcurve" smooth="yes"/>
      <point x="168" y="592"/>
      <point x="115" y="569"/>
      <point x="75" y="529"/>
      <point x="52" y="476"/>
      <point x="52" y="446" type="qcurve" smooth="yes"/>
      <point x="52" y="415"/>
      <point x="75" y="362"/>
      <point x="115" y="322"/>
      <point x="168" y="299"/>
      <point x="198" y="299" type="qcurve" smooth="yes"/>
      <point x="228" y="299"/>
      <point x="281" y="322"/>
      <point x="321" y="362"/>
      <point x="344" y="415"/>
      <point x="344" y="446" type="qcurve" smooth="yes"/>
      <point x="344" y="476"/>
      <point x="321" y="529"/>
      <point x="281" y="569"/>
      <point x="228" y="592"/>
    </contour>
  </outline>
</glyph>
<glyph name="Egrave" format="2">
  <advance width="374"/>
  <unicode hex="00C8"/>
  <outline>
    <contour>
      <point x="345" y="0" type="line"/>
      <point x="29" y="0" type="line"/>
      <point x="29" y="649" type="line"/>
      <point x="345" y="649" type="line"/>
      <point x="345" y="544" type="line"/>
      <point x="141" y="544" type="line"/>
      <point x="141" y="393" type="line"/>
      <point x="285" y="393" type="line"/>
      <point x="285" y="287" type="line"/>
      <point x="141" y="287" type="line"/>
      <point x="141" y="106" type="line"/>
      <point x="345" y="106" type="line"/>
    </contour>
    <contour>
      <point x="149" y="682" type="qcurve"/>
      <point x="149" y="683"/>
      <point x="129" y="709"/>
      <point x="118" y="724" type="qcurve" smooth="yes"/>
      <point x="104" y="742"/>
      <point x="87" y="764" type="qcurve"/>
      <point x="184" y="764" type="line"/>
      <point x="244" y="683" type="line"/>
      <point x="217" y="682"/>
      <point x="196" y="682" type="qcurve"/>
      <point x="178" y="681"/>
      <point x="149" y="681"/>
    </contour>
  </outline>
</glyph>
<glyph name="germandbls" format="2">
  <advance width="390"/>
  <unicode hex="00DF"/>
  <outline>
    <contour>
      <point x="334" y="343" type="qcurve"/>
      <point x="350" y="327"/>
      <point x="367" y="293"/>
      <point x="375" y="257"/>
      <point x="376" y="218"/>
      <point x="376" y="198" type="qcurve" smooth="yes"/>
      <point x="376" y="150"/>
      <point x="357" y="77"/>
      <point x="310" y="26"/>
      <point x="230" y="0"/>
      <point x="168" y="0" type="qcurve"/>
      <point x="168" y="106" type="line"/>
      <point x="219" y="108"/>
      <point x="264" y="152"/>
      <point x="264" y="181" type="qcurve" smooth="yes"/>
      <point x="264" y="198" type="line" smooth="yes"/>
      <point x="264" y="241"/>
      <point x="252" y="277"/>
      <point x="235" y="282" type="qcurve" smooth="yes"/>
      <point x="224" y="285"/>
      <point x="218" y="289"/>
      <point x="215" y="290"/>
      <point x="210" y="289"/>
      <point x="200" y="289" type="qcurve" smooth="yes"/>
      <point x="172" y="289" type="line"/>
      <point x="172" y="396" type="line"/>
      <point x="196" y="396" type="line"/>
      <point x="222" y="397"/>
      <point x="250" y="408"/>
      <point x="262" y="427"/>
      <point x="263" y="451"/>
      <point x="263" y="466" type="qcurve" smooth="yes"/>
      <point x="263" y="485"/>
      <point x="260" y="514"/>
      <point x="248" y="535"/>
      <point x="222" y="546"/>
      <point x="199" y="547" type="qcurve"/>
      <point x="175" y="547"/>
      <point x="150" y="537"/>
      <point x="138" y="517"/>
      <point x="136" y="485"/>
      <point x="136" y="464" type="qcurve"/>
      <point x="134" y="464" type="line"/>
      <point x="134" y="0" type="line"/>
      <point x="23" y="0" type="line"/>
      <point x="23" y="464" type="line" smooth="yes"/>
      <point x="23" y="509"/>
      <point x="41" y="579"/>
      <point x="82" y="628"/>
      <point x="149" y="653"/>
      <point x="199" y="653" type="qcurve" smooth="yes"/>
      <point x="260" y="653"/>
      <point x="330" y="624"/>
      <point x="366" y="571"/>
      <point x="375" y="495"/>
      <point x="375" y="447" type="qcurve" smooth="yes"/>
      <point x="375" y="417"/>
      <point x="357" y="366"/>
    </contour>
  </outline>
</glyph>
<glyph name="eacute" format="2">
  <advance width="374"/>
  <unicode hex="00E9"/>
  <outline>
    <contour>
      <point x="345" y="0" type="line"/>
      <point x="29" y="0" type="line"/>
      <point x="29" y="649" type="line"/>
      <point x="345" y="649" type="line"/>
      <point x="345" y="544" type="line"/>
      <point x="141" y="544" type="line"/>
      <point x="141" y="393" type="line"/>
      <point x="285" y="393" type="line"/>
      <point x="285" y="287" type="line"/>
      <point x="141" y="287" type="line"/>
      <point x="141" y="106" type="line"/>
      <point x="345" y="106" type="line"/>
    </contour>
    <contour>
      <point x="131" y="682" type="qcurve"/>
      <point x="131" y="683"/>
      <point x="147" y="709"/>
      <point x="157" y="724" type="qcurve" smooth="yes"/>
      <point x="183" y="764" type="line"/>
      <point x="280" y="764" type="line"/>
      <point x="226" y="683" type="line"/>
      <point x="199" y="682"/>
      <point x="178" y="682" type="qcurve"/>
      <point x="160" y="681"/>
      <point x="131" y="681"/>
    </contour>
  </outline>
</glyph>
<glyph name="hbar" format="2">
  <advance width="459"/>
  <unicode hex="0127"/>
  <outline>
    <contour>
      <point x="435" y="545" type="line"/>
      <point x="435" y="448" type="line"/>
      <point x="406" y="448" type="line"/>
      <point x="406" y="0" type="line"/>
      <point x="296" y="0" type="line"/>
      <point x="296" y="287" type="line"/>
      <point x="169" y="287" type="line"/>
      <point x="169" y="0" type="line"/>
      <point x="57" y="0" type="line"/>
      <point x="57" y="448" type="line"/>
      <point x="26" y="448" type="line"/>
      <point x="26" y="545" type="line"/>
      <point x="57" y="545" type="line"/>
      <point x="57" y="649" type="line"/>
      <point x="169" y="649" type="line"/>
      <point x="169" y="545" type="line"/>
      <point x="296" y="545" type="line"/>
      <point x="296" y="649" type="line"/>
      <point x="406" y="649" type="line"/>
      <point x="406" y="545" type="line"/>
    </contour>
    <contour>
      <point x="296" y="394" type="line"/>
      <point x="296" y="448" type="line"/>
      <point x="169" y="448" type="line"/>
      <point x="169" y="394" type="line"/>
    </contour>
  </outline>
</glyph>
<glyph name="ibreve" format="2">
  <advance width="210"/>
  <unicode hex="012D"/>
  <outline>
    <contour>
      <point x="51" y="647" type="line"/>
      <point x="164" y="647" type="line"/>
      <point x="164" y="0" type="line"/>
      <point x="51" y="0" type="line"/>
    </contour>
    <contour>
      <point x="107" y="679" type="qcurve" smooth="yes"/>
      <point x="50" y="679"/>
      <point x="-4" y="727"/>
      <point x="-6" y="783" type="qcurve"/>
      <point x="59" y="783" type="line"/>
      <point x="63" y="754"/>
      <point x="86" y="742"/>
      <point x="107" y="742" type="qcurve" smooth="yes"/>
      <point x="129" y="742"/>
      <point x="154" y="754"/>
      <point x="158" y="783" type="qcurve"/>
      <point x="223" y="783" type="line"/>
      <point x="221" y="727"/>
      <point x="164" y="679"/>
    </contour>
  </outline>
</glyph>
<glyph name="Lcaron" format="2">
  <advance width="317"/>
  <unicode hex="013D"/>
  <outline>
    <contour>
      <point x="307" y="0" type="line"/>
      <point x="32" y="0" type="line"/>
      <point x="32" y="649" type="line"/>
      <point x="145" y="649" type="line"/>
      <point x="145" y="106" type="line"/>
      <point x="307" y="106" type="line"/>
    </contour>
    <contour>
      <point x="180" y="491" type="line"/>
      <point x="198" y="503"/>
      <point x="198" y="522" type="qcurve" smooth="yes"/>
      <point x="198" y="544"/>
      <point x="188" y="559" type="qcurve" smooth="yes"/>
      <point x="183" y="567" type="line"/>
      <point x="183" y="566" type="line"/>
      <point x="179" y="570"/>
      <point x="174" y="578"/>
      <point x="172" y="585" type="qcurve" smooth="yes"/>
      <point x="169" y="598"/>
      <point x="178" y="621"/>
      <point x="197" y="637"/>
      <point x="222" y="647"/>
      <point x="235" y="647" type="qcurve" smooth="yes"/>
      <point x="254" y="647"/>
      <point x="284" y="625"/>
      <point x="287" y="598" type="qcurve" smooth="yes"/>
      <point x="291" y="559"/>
      <point x="244" y="495"/>
      <point x="211" y="472" type="qcurve"/>
    </contour>
  </outline>
</glyph>
<glyph name="Ncommaaccent" format="2">
  <advance width="446"/>
  <unicode hex="0145"/>
  <outline>
    <contour>
      <point x="413" y="0" type="line"/>
      <point x="301" y="0" type="line"/>
      <point x="140" y="368" type="line"/>
      <point x="140" y="0" type="line"/>
      <point x="29" y="0" type="line"/>
      <point x="29" y="649" type="line"/>
      <point x="139" y="649" type="line"/>
      <point x="300" y="281" type="line"/>
      <point x="300" y="649" type="line"/>
      <point x="413" y="649" type="line"/>
    </contour>
    <contour>
      <point x="158" y="-193" type="line"/>
      <point x="176" y="-181"/>
      <point x="176" y="-162" type="qcurve" smooth="yes"/>
      <point x="176" y="-140"/>
      <point x="166" y="-125" type="qcurve" smooth="yes"/>
      <point x="161" y="-117" type="line"/>
      <point x="161" y="-118" type="line"/>
      <point x="157" y="-114"/>
      <point x="152" y="-106"/>
      <point x="150" y="-99" type="qcurve" smooth="yes"/>
      <point x="147" y="-86"/>
      <point x="156" y="-63"/>
      <point x="175" y="-47"/>
      <point x="200" y="-37"/>
      <point x="213" y="-37" type="qcurve" smooth="yes"/>
      <point x="232" y="-37"/>
      <point x="262" y="-59"/>
      <point x="265" y="-86" type="qcurve" smooth="yes"/>
      <point x="269" y="-125"/>
      <point x="222" y="-189"/>
      <point x="189" y="-212" type="qcurve"/>
    </contour>
  </outline>
</glyph>
<glyph name="rcommaaccent" format="2">
  <advance width="410"/>
  <unicode hex="0157"/>
  <outline>
    <contour>
      <point x="264" y="0" type="line"/>
      <point x="176" y="224" type="line"/>
      <point x="143" y="224" type="line"/>
      <point x="143" y="0" type="line"/>
      <point x="31" y="0" type="line"/>
      <point x="31" y="649" type="line"/>
      <point x="207" y="649" type="line" smooth="yes"/>
      <point x="256" y="649"/>
      <point x="324" y="630"/>
      <point x="364" y="590"/>
      <point x="382" y="528"/>
      <point x="384" y="382"/>
      <point x="379" y="327"/>
      <point x="361" y="280"/>
      <point x="324" y="244"/>
      <point x="292" y="235" type="qcurve"/>
      <point x="384" y="0" type="line"/>
    </contour>
    <contour>
      <point x="143" y="329" type="line"/>
      <point x="192" y="329"/>
      <point x="245" y="335"/>
      <point x="269" y="353"/>
      <point x="272" y="387"/>
      <point x="271" y="511"/>
      <point x="240" y="544"/>
      <point x="207" y="544" type="qcurve" smooth="yes"/>
      <point x="143" y="544" type="line"/>
    </contour>
    <contour>
      <point x="148" y="-193" type="line"/>
      <point x="166" y="-181"/>
      <point x="166" y="-162" type="qcurve" smooth="yes"/>
      <point x="166" y="-140"/>
      <point x="156" y="-125" type="qcurve" smooth="yes"/>
      <point x="151" y="-117" type="line"/>
      <point x="151" y="-118" type="line"/>
      <point x="147" y="-114"/>
      <point x="142" y="-106"/>
      <point x="140" y="-99" type="qcurve" smooth="yes"/>
      <point x="137" y="-86"/>
      <point x="146" y="-63"/>
      <point x="165" y="-47"/>
      <point x="190" y="-37"/>
      <point x="203" y="-37" type="qcurve" smooth="yes"/>
      <point x="222" y="-37"/>
      <point x="252" y="-59"/>
      <point x="255" y="-86" type="qcurve" smooth="yes"/>
      <point x="259" y="-125"/>
      <point x="212" y="-189"/>
      <point x="179" y="-212" type="qcurve"/>
    </contour>
  </outline>
</glyph>
<glyph name="tcommaaccent" format="2">
  <advance width="297"/>
  <unicode hex="0163"/>
  <outline>
    <contour>
      <point x="306" y="544" type="line"/>
      <point x="202" y="544" type="line"/>
      <point x="202" y="0" type="line"/>
      <point x="91" y="0" type="line"/>
      <point x="91" y="544" type="line"/>
      <point x="-13" y="544" type="line"/>
      <point x="-13" y="649" type="line"/>
      <point x="306" y="649" type="line"/>
    </contour>
    <contour>
      <point x="102" y="-193" type="line"/>
      <point x="120" y="-181"/>
      <point x="120" y="-162" type="qcurve" smooth="yes"/>
      <point x="120" y="-140"/>
      <point x="110" y="-125" type="qcurve" smooth="yes"/>
      <point x="105" y="-117" type="line"/>
      <point x="105" y="-118" type="line"/>
      <point x="101" y="-114"/>
      <point x="96" y="-106"/>
      <point x="94" y="-99" type="qcurve" smooth="yes"/>
      <point x="91" y="-86"/>
      <point x="100" y="-63"/>
      <point x="119" y="-47"/>
      <point x="144" y="-37"/>
      <point x="157" y="-37" type="qcurve" smooth="yes"/>
      <point x="176" y="-37"/>
      <point x="206" y="-59"/>
      <point x="209" y="-86" type="qcurve" smooth="yes"/>
      <point x="213" y="-125"/>
      <point x="166" y="-189"/>
      <point x="133" y="-212" type="qcurve"/>
    </contour>
  </outline>
</glyph>
<glyph name="ring" format="2">
  <advance width="373"/>
  <unicode hex="02DA"/>
  <outline>
    <contour>
      <point x="181" y="671" type="qcurve" smooth="yes"/>
      <point x="149" y="671"/>
      <point x="106" y="715"/>
      <point x="106" y="744" type="qcurve" smooth="yes"/>
      <point x="106" y="776"/>
      <point x="149" y="820"/>
      <point x="181" y="820" type="qcurve" smooth="yes"/>
      <point x="213" y="820"/>
      <point x="255" y="776"/>
      <point x="255" y="744" type="qcurve" smooth="yes"/>
      <point x="255" y="715"/>
      <point x="213" y="671"/>
    </contour>
    <contour>
      <point x="181" y="765" type="qcurve" smooth="yes"/>
      <point x="170" y="765"/>
      <point x="157" y="752"/>
      <point x="157" y="743" type="qcurve" smooth="yes"/>
      <point x="157" y="734"/>
      <point x="170" y="722"/>
      <point x="181" y="722" type="qcurve" smooth="yes"/>
      <point x="189" y="722"/>
      <point x="204" y="734"/>
      <point x="204" y="743" type="qcurve" smooth="yes"/>
      <point x="204" y="752"/>
      <point x="189" y="765"/>
    </contour>
  </outline>
</glyph>
<glyph name="quoteleft" format="2">
  <advance width="174"/>
  <unicode hex="2018"/>
  <outline>
    <contour>
      <point x="138" y="659" type="line"/>
      <point x="120" y="647"/>
      <point x="120" y="628" type="qcurve" smooth="yes"/>
      <point x="120" y="606"/>
      <point x="130" y="591" type="qcurve" smooth="yes"/>
      <point x="135" y="583" type="line"/>
      <point x="135" y="584" type="line"/>
      <point x="139" y="580"/>
      <point x="144" y="572"/>
      <point x="146" y="565" type="qcurve" smooth="yes"/>
      <point x="149" y="552"/>
      <point x="140" y="529"/>
      <point x="121" y="513"/>
      <point x="96" y="503"/>
      <point x="83" y="503" type="qcurve" smooth="yes"/>
      <point x="64" y="503"/>
      <point x="34" y="525"/>
      <point x="31" y="552" type="qcurve" smooth="yes"/>
      <point x="27" y="591"/>
      <point x="74" y="655"/>
      <point x="107" y="678" type="qcurve"/>
    </contour>
  </outline>
</glyph>
<glyph name="approxequal" format="2">
  <advance width="354"/>
  <unicode hex="2248"/>
  <outline>
    <contour>
      <point x="321" y="419" type="line"/>
      <point x="317" y="414" type="line" smooth="yes"/>
      <point x="286" y="377"/>
      <point x="250" y="368" type="qcurve" smooth="yes"/>
      <point x="245" y="367"/>
      <point x="236" y="367"/>
      <point x="231" y="367" type="qcurve" smooth="yes"/>
      <point x="194" y="367"/>
      <point x="151" y="396" type="qcurve"/>
      <point x="145" y="399"/>
      <point x="134" y="404"/>
      <point x="128" y="404" type="qcurve" smooth="yes"/>
      <point x="120" y="404"/>
      <point x="106" y="399"/>
      <point x="100" y="396" type="qcurve"/>
      <point x="93" y="391"/>
      <point x="84" y="382"/>
      <point x="80" y="378" type="qcurve" smooth="yes"/>
      <point x="72" y="370" type="line"/>
      <point x="68" y="365" type="line"/>
      <point x="64" y="368" type="line"/>
      <point x="23" y="405" type="line"/>
      <point x="26" y="411" type="line"/>
      <point x="28" y="413"/>
      <point x="51" y="440"/>
      <point x="71" y="451" type="qcurve"/>
      <point x="98" y="469"/>
      <point x="128" y="469" type="qcurve" smooth="yes"/>
      <point x="156" y="469"/>
      <point x="183" y="451" type="qcurve" smooth="yes"/>
      <point x="217" y="428"/>
      <point x="239" y="433" type="qcurve" smooth="yes"/>
      <point x="257" y="438"/>
      <point x="272" y="458" type="qcurve"/>
      <point x="275" y="463" type="line"/>
    </contour>
    <contour>
      <point x="324" y="284" type="line"/>
      <point x="320" y="279" type="line" smooth="yes"/>
      <point x="289" y="242"/>
      <point x="253" y="233" type="qcurve" smooth="yes"/>
      <point x="248" y="232"/>
      <point x="239" y="232"/>
      <point x="234" y="232" type="qcurve" smooth="yes"/>
      <point x="197" y="232"/>
      <point x="154" y="261" type="qcurve"/>
      <point x="148" y="264"/>
      <point x="137" y="269"/>
      <point x="131" y="269" type="qcurve" smooth="yes"/>
      <point x="123" y="269"/>
      <point x="109" y="264"/>
      <point x="103" y="261" type="qcurve"/>
      <point x="96" y="256"/>
      <point x="87" y="247"/>
      <point x="83" y="243" type="qcurve" smooth="yes"/>
      <point x="75" y="235" type="line"/>
      <point x="71" y="230" type="line"/>
      <point x="67" y="233" type="line"/>
      <point x="26" y="270" type="line"/>
      <point x="29" y="276" type="line"/>
      <point x="31" y="278"/>
      <point x="54" y="305"/>
      <point x="74" y="316" type="qcurve"/>
      <point x="101" y="334"/>
      <point x="131" y="334" type="qcurve" smooth="yes"/>
      <point x="159" y="334"/>
      <point x="186" y="316" type="qcurve" smooth="yes"/>
      <point x="220" y="293"/>
      <point x="242" y="298" type="qcurve" smooth="yes"/>
      <point x="260" y="303"/>
      <point x="275" y="323" type="qcurve"/>
      <point x="278" y="328" type="line"/>
    </contour>
  </outline>
</glyph>
<glyph name="notequal" format="2">
  <advance width="337"/>
  <unicode hex="2260"/>
  <outline>
    <contour>
      <point x="319" y="282" type="line"/>
      <point x="319" y="201" type="line"/>
      <point x="151" y="201" type="line"/>
      <point x="113" y="131" type="line"/>
      <point x="63" y="158" type="line"/>
      <point x="86" y="201" type="line"/>
      <point x="27" y="201" type="line"/>
      <point x="27" y="282" type="line"/>
      <point x="130" y="282" type="line"/>
      <point x="161" y="339" type="line"/>
      <point x="26" y="339" type="line"/>
      <point x="26" y="420" type="line"/>
      <point x="205" y="420" type="line"/>
      <point x="243" y="491" type="line"/>
      <point x="293" y="464" type="line"/>
      <point x="270" y="420" type="line"/>
      <point x="318" y="420" type="line"/>
      <point x="318" y="339" type="line"/>
      <point x="226" y="339" type="line"/>
      <point x="195" y="282" type="line"/>
    </contour>
    <contour>
      <point x="319" y="282" type="line"/>
      <point x="319" y="201" type="line"/>
      <point x="151" y="201" type="line"/>
      <point x="113" y="131" type="line"/>
      <point x="63" y="158" type="line"/>
      <point x="86" y="201" type="line"/>
      <point x="27" y="201" type="line"/>
      <point x="27" y="282" type="line"/>
      <point x="130" y="282" type="line"/>
      <point x="161" y="339" type="line"/>
      <point x="26" y="339" type="line"/>
      <point x="26" y="420" type="line"/>
      <point x="205" y="420" type="line"/>
      <point x="243" y="491" type="line"/>
      <point x="293" y="464" type="line"/>
      <point x="270" y="420" type="line"/>
      <point x="318" y="420" type="line"/>
      <point x="318" y="339" type="line"/>
      <point x="226" y="339" type="line"/>
      <point x="195" y="282" type="line"/>
    </contour>
  </outline>
</glyph>
